<?xml version="1.0" encoding="UTF-8"?>
<svg width="74px" height="80px" viewBox="0 0 74 80" version="1.1" xmlns="http://www.w3.org/2000/svg" xmlns:xlink="http://www.w3.org/1999/xlink">
    <!-- Generator: Sketch 49 (51002) - http://www.bohemiancoding.com/sketch -->
    <title>noun_399270_cc</title>
    <desc>Created with Sketch.</desc>
    <defs></defs>
    <g id="portfolio" stroke="none" stroke-width="1" fill="none" fill-rule="evenodd">
        <g id="noun_399270_cc" fill="#FFFFFF" fill-rule="nonzero">
            <path d="M41.593,0.32195122 C24.175,0.32195122 10.005,14.1463415 10.005,31.1395122 L10.005,33.0068293 L0.995,49.422439 C0.745,49.8760976 0.759,50.4234146 1.03,50.8653659 C1.301,51.3073171 1.79,51.5765854 2.317,51.5765854 L10.005,51.5765854 L10.005,62.7287805 C10.005,67.7365854 14.181,71.8107317 19.314,71.8107317 L32.515,71.8107317 L32.515,78.2146341 C32.515,78.6029268 32.673,78.9756098 32.955,79.2497561 C33.236,79.5258537 33.617,79.6780488 34.015,79.6780488 L34.019,79.6780488 L62.697,79.6780488 C63.523,79.6760976 64.193,78.9414634 64.193,78.1356098 L64.193,52.6429268 C69.996,46.8604878 73.183,39.2487805 73.183,31.1395122 C73.183,14.1463415 59.011,0.32195122 41.593,0.32195122 Z M21.784,38.1814634 C19.847,38.1814634 18.277,36.6487805 18.277,34.76 C18.277,32.8692683 19.847,31.337561 21.784,31.337561 C23.722,31.337561 25.292,32.8692683 25.292,34.76 C25.292,36.6478049 23.722,38.1814634 21.784,38.1814634 Z M53.496,38.355122 C53.05,38.355122 52.588,38.3307317 52.117,38.2907317 C51.47,40.1073171 51.61,42.2897561 52.425,43.88 C52.425,43.88 50.467,45.302439 48.134,44.7736585 C48.134,44.7736585 44.281,42.1043902 44.76,36.364878 C41.952,35.1346341 39.972,33.6204878 38.298,32.3346341 C36.661,31.0760976 35.368,30.0819512 33.808,29.697561 C32.724,29.4312195 31.498,29.2331707 30.314,29.0439024 C26.757,28.4721951 23.08,27.8819512 21.306,25.2234146 C20.238,23.622439 20.056,21.5765854 20.747,18.9687805 C22.893,10.8887805 33.179,6.0604878 41.882,6.0604878 C42.986,6.0604878 44.062,6.1404878 45.076,6.29658537 C58.645,8.39414634 66.053,18.5697561 65.134,26.795122 C64.831,29.5063415 63.093,38.355122 53.496,38.355122 Z" id="Shape"></path>
        </g>
    </g>
</svg>