<?xml version="1.0" encoding="UTF-8"?>
<svg width="101px" height="80px" viewBox="0 0 101 80" version="1.1" xmlns="http://www.w3.org/2000/svg" xmlns:xlink="http://www.w3.org/1999/xlink">
    <!-- Generator: Sketch 49 (51002) - http://www.bohemiancoding.com/sketch -->
    <title>noun_17977_cc</title>
    <desc>Created with Sketch.</desc>
    <defs></defs>
    <g id="Page-1" stroke="none" stroke-width="1" fill="none" fill-rule="evenodd">
        <g id="Group-2" transform="translate(-100.000000, -60.000000)" fill="#FFFFFF" fill-rule="nonzero">
            <g id="noun_17977_cc" transform="translate(100.000000, 60.000000)">
                <g id="Group">
                    <circle id="Oval" cx="37.194" cy="34.5" r="3.974"></circle>
                    <circle id="Oval" cx="65.082" cy="34.5" r="3.974"></circle>
                    <path d="M36.399,52.384 C36.399,60.269 44.565,66.666 50.676,66.666 C56.787,66.666 64.956,60.269 64.956,52.384 C64.956,44.5 36.399,44.5 36.399,52.384 Z" id="Shape"></path>
                    <path d="M100.659,30.526 C91.576,1.889 66.013,0.22 56.712,0.606 C54.782,0.283 52.777,0.103 50.678,0.103 C48.507,0.103 46.49,0.284 44.611,0.606 C35.312,0.219 9.744,1.885 0.659,30.526 C0.659,30.526 3.128,39.123 15.388,39.781 C14.613,43.231 14.064,46.499 14.064,48.743 C14.064,66.789 29.311,79.393 51.141,79.393 C72.97,79.393 88.216,66.789 88.216,48.743 C88.216,46.472 87.661,43.187 86.877,39.731 C98.336,38.702 100.659,30.526 100.659,30.526 Z M51.139,74.646 C35.049,74.646 18.812,66.637 18.812,48.746 C18.812,46.036 19.886,40.982 21.166,36.183 C26.253,29.392 33.881,14.798 40.565,6.664 C43.418,5.552 46.738,4.856 50.677,4.856 C54.502,4.856 57.77,5.476 60.618,6.499 C67.979,15.377 76.515,32.229 81.55,37.908 C82.626,42.143 83.463,46.342 83.463,48.746 C83.464,66.637 67.229,74.646 51.139,74.646 Z" id="Shape"></path>
                </g>
            </g>
        </g>
    </g>
</svg>