<?xml version="1.0" encoding="UTF-8"?>
<svg width="90px" height="80px" viewBox="0 0 90 80" version="1.1" xmlns="http://www.w3.org/2000/svg" xmlns:xlink="http://www.w3.org/1999/xlink">
    <!-- Generator: Sketch 49 (51002) - http://www.bohemiancoding.com/sketch -->
    <title>noun_1511389_cc</title>
    <desc>Created with Sketch.</desc>
    <defs></defs>
    <g id="portfolio" stroke="none" stroke-width="1" fill="none" fill-rule="evenodd">
        <g id="Group-2" transform="translate(-105.000000, -37.000000)" fill="#FDFAFA" fill-rule="nonzero">
            <g id="noun_1511389_cc" transform="translate(105.000000, 37.000000)">
                <g id="Group">
                    <path d="M48,70.3296703 L46.5,70.3296703 C46.6,70.2417582 46.6,70.2417582 46.7,70.1538462 L60.2,51.0769231 C60.2,50.989011 60.3,50.989011 60.3,50.9010989 C62.7,46.7692308 62.5,41.9340659 59.9,37.8901099 C58.5,35.6923077 56.5,33.9340659 54.1,32.7032967 L55,21.1868132 C55,21.1868132 55,21.1868132 55,21.0989011 C55,21.0989011 55,21.0989011 55,21.010989 L55,1.75824176 C55,0.791208791 54.1,0 53,0 L37,0 C35.9,0 35,0.791208791 35,1.75824176 L35,21.0989011 C35,21.0989011 35,21.0989011 35,21.1868132 C35,21.1868132 35,21.1868132 35,21.2747253 L35.9,32.7912088 C33.5,34.021978 31.5,35.8681319 30.1,37.978022 C27.5,42.021978 27.3,46.8571429 29.7,50.989011 C29.7,51.0769231 29.8,51.0769231 29.8,51.1648352 L43.3,70.2417582 C43.3,70.3296703 43.4,70.3296703 43.5,70.4175824 L42,70.4175824 C40.9,70.4175824 40,71.2087912 40,72.1758242 L40,77.4505495 C40,78.4175824 40.9,79.2087912 42,79.2087912 L48,79.2087912 C49.1,79.2087912 50,78.4175824 50,77.4505495 L50,72.1758242 C50,71.1208791 49.1,70.3296703 48,70.3296703 Z M39,3.51648352 L51,3.51648352 L51,19.3406593 L39,19.3406593 L39,3.51648352 Z M39.1,22.8571429 L50.8,22.8571429 L50.1,31.2087912 C48.8,30.8571429 47.5,30.6813187 46.2,30.5934066 C45.4,30.5054945 44.5,30.5054945 43.7,30.5934066 C42.3,30.6813187 41,30.8571429 39.8,31.2087912 L39.1,22.8571429 Z M33.2,49.3186813 C31.5,46.2417582 31.6,42.7252747 33.6,39.6483516 C35.7,36.3956044 39.6,34.2857143 44,34.1098901 C44.7,34.1098901 45.3,34.1098901 46,34.1098901 C50.4,34.3736264 54.3,36.3956044 56.4,39.6483516 C58.4,42.7252747 58.5,46.1538462 56.8,49.3186813 L45,65.9340659 L33.2,49.3186813 Z M46,75.6043956 L44,75.6043956 L44,73.8461538 L46,73.8461538 L46,75.6043956 Z" id="Shape"></path>
                    <path d="M60,65.9340659 L54,65.9340659 C52.9,65.9340659 52,66.7252747 52,67.6923077 L52,72.967033 C52,73.9340659 52.9,74.7252747 54,74.7252747 L60,74.7252747 C61.1,74.7252747 62,73.9340659 62,72.967033 L62,67.6923077 C62,66.7252747 61.1,65.9340659 60,65.9340659 Z M58,71.2087912 L56,71.2087912 L56,69.4505495 L58,69.4505495 L58,71.2087912 Z" id="Shape"></path>
                    <path d="M72,58.021978 L66,58.021978 C64.9,58.021978 64,58.8131868 64,59.7802198 L64,65.0549451 C64,66.021978 64.9,66.8131868 66,66.8131868 L72,66.8131868 C73.1,66.8131868 74,66.021978 74,65.0549451 L74,59.7802198 C74,58.8131868 73.1,58.021978 72,58.021978 Z M70,63.2967033 L68,63.2967033 L68,61.5384615 L70,61.5384615 L70,63.2967033 Z" id="Shape"></path>
                    <path d="M83,48.3516484 L77,48.3516484 C75.9,48.3516484 75,49.1428571 75,50.1098901 L75,55.3846154 C75,56.3516484 75.9,57.1428571 77,57.1428571 L83,57.1428571 C84.1,57.1428571 85,56.3516484 85,55.3846154 L85,50.1098901 C85,49.1428571 84.1,48.3516484 83,48.3516484 Z M81,53.6263736 L79,53.6263736 L79,51.8681319 L81,51.8681319 L81,53.6263736 Z" id="Shape"></path>
                    <path d="M88,36.043956 L82,36.043956 C80.9,36.043956 80,36.8351648 80,37.8021978 L80,43.0769231 C80,44.043956 80.9,44.8351648 82,44.8351648 L88,44.8351648 C89.1,44.8351648 90,44.043956 90,43.0769231 L90,37.8021978 C90,36.8351648 89.1,36.043956 88,36.043956 Z M86,41.3186813 L84,41.3186813 L84,39.5604396 L86,39.5604396 L86,41.3186813 Z" id="Shape"></path>
                    <path d="M36,65.9340659 L30,65.9340659 C28.9,65.9340659 28,66.7252747 28,67.6923077 L28,72.967033 C28,73.9340659 28.9,74.7252747 30,74.7252747 L36,74.7252747 C37.1,74.7252747 38,73.9340659 38,72.967033 L38,67.6923077 C38,66.7252747 37.1,65.9340659 36,65.9340659 Z M34,71.2087912 L32,71.2087912 L32,69.4505495 L34,69.4505495 L34,71.2087912 Z" id="Shape"></path>
                    <path d="M24,58.021978 L18,58.021978 C16.9,58.021978 16,58.8131868 16,59.7802198 L16,65.0549451 C16,66.021978 16.9,66.8131868 18,66.8131868 L24,66.8131868 C25.1,66.8131868 26,66.021978 26,65.0549451 L26,59.7802198 C26,58.8131868 25.1,58.021978 24,58.021978 Z M22,63.2967033 L20,63.2967033 L20,61.5384615 L22,61.5384615 L22,63.2967033 Z" id="Shape"></path>
                    <path d="M13,48.3516484 L7,48.3516484 C5.9,48.3516484 5,49.1428571 5,50.1098901 L5,55.3846154 C5,56.3516484 5.9,57.1428571 7,57.1428571 L13,57.1428571 C14.1,57.1428571 15,56.3516484 15,55.3846154 L15,50.1098901 C15,49.1428571 14.1,48.3516484 13,48.3516484 Z M11,53.6263736 L9,53.6263736 L9,51.8681319 L11,51.8681319 L11,53.6263736 Z" id="Shape"></path>
                    <path d="M10,43.0769231 L10,37.8021978 C10,36.8351648 9.1,36.043956 8,36.043956 L2,36.043956 C0.9,36.043956 0,36.8351648 0,37.8021978 L0,43.0769231 C0,44.043956 0.9,44.8351648 2,44.8351648 L8,44.8351648 C9.1,44.8351648 10,44.043956 10,43.0769231 Z M6,41.3186813 L4,41.3186813 L4,39.5604396 L6,39.5604396 L6,41.3186813 Z" id="Shape"></path>
                    <path d="M51,44.8351648 C51,45.8021978 51.9,46.5934066 53,46.5934066 C54.1,46.5934066 55,45.8021978 55,44.8351648 C55,40 50.5,36.043956 45,36.043956 C43.9,36.043956 43,36.8351648 43,37.8021978 C43,38.7692308 43.9,39.5604396 45,39.5604396 C48.3,39.5604396 51,41.9340659 51,44.8351648 Z" id="Shape"></path>
                </g>
            </g>
        </g>
    </g>
</svg>